# xmcd
#
# Track frame offsets: 
#        150
#        15667
#        31381
#        47631
#        63262
#        76998
#        94286
#        111450
#        126583
#        149640
#        167375
#        181363
#        199838
#        216969
#        232972
#
# Disc length: 3345 seconds
#
# Revision: 0
# Processed by: cddbd v1.5.2PL0 Copyright (c) Steve Scherf et al.
# Submitted via: ExactAudioCopyFreeDBPlugin 1.0
#
DISCID=d70d0f0f
DTITLE=Various Artist - The Essential New Country CD2
DYEAR=2010
DGENRE=Country
TTITLE0=Martina McBride - Independence Day
TTITLE1=Brad Paisley - Mud On The Tires
TTITLE2=Gretchen Wilson - Redneck Woman
TTITLE3=Brooks and Dunn - Put A Girl In It
TTITLE4=Tracy Byrd - Ten Rounds With Jose Cuervo
TTITLE5=Aaron Lines - Turn It Up (I Like The Sound Of That)
TTITLE6=Diamond Rio - Beautiful Mess
TTITLE7=Big and Rich - Save A Horse (Ride A Cowboy)
TTITLE8=Alan Jackson - Good Time
TTITLE9=Keith Anderson - I Still Miss You
TTITLE10=Jake Owen - Don't Think I Can't Love You
TTITLE11=Miranda Lambert - Famous In A Small Town
TTITLE12=Pat Green - Feels Just Like It Should
TTITLE13=Buddy Jewell - Sweet Southern Comfort
TTITLE14=Andy Griggs - She Thinks She Needs Me
EXTD=
EXTT0=
EXTT1=
EXTT2=
EXTT3=
EXTT4=
EXTT5=
EXTT6=
EXTT7=
EXTT8=
EXTT9=
EXTT10=
EXTT11=
EXTT12=
EXTT13=
EXTT14=
PLAYORDER=
